<svg id="visual" viewBox="0 0 900 600" width="900" height="600" xmlns="http://www.w3.org/2000/svg" xmlns:xlink="http://www.w3.org/1999/xlink" version="1.1"><rect x="0" y="0" width="900" height="600" fill="#001220"></rect><defs><linearGradient id="grad1_0" x1="33.3%" y1="0%" x2="100%" y2="100%"><stop offset="20%" stop-color="#001220" stop-opacity="1"></stop><stop offset="80%" stop-color="#001220" stop-opacity="1"></stop></linearGradient></defs><defs><linearGradient id="grad2_0" x1="0%" y1="0%" x2="66.7%" y2="100%"><stop offset="20%" stop-color="#001220" stop-opacity="1"></stop><stop offset="80%" stop-color="#001220" stop-opacity="1"></stop></linearGradient></defs><g transform="translate(900, 0)"><path d="M0 486.7C-66.4 473.5 -132.9 460.2 -174.9 422.2C-216.9 384.2 -234.4 321.5 -282.8 282.8C-331.3 244.1 -410.6 229.4 -449.7 186.3C-488.8 143.1 -487.8 71.6 -486.7 0L0 0Z" fill="#0066FF"></path></g><g transform="translate(0, 600)"><path d="M0 -486.7C49.2 -444.4 98.3 -402 159.2 -384.3C220.1 -366.7 292.7 -373.8 344.2 -344.2C395.7 -314.6 426 -248.3 446.2 -184.8C466.5 -121.4 476.6 -60.7 486.7 0L0 0Z" fill="#0066FF"></path></g></svg>